# xmcd CD database file
# Copyright (C) 1993-1996 Ti Kan
#
# Track frame offsets:
# 187
# 15587
# 26732
# 39845
# 53195
# 64837
# 80595
# 98377
# 112685
# 124460
# 137015
# 149187
# 163302
# 178602
#
# Disc length: 2539 seconds
#
# Revision: 0
# Processed by: cddbd v1.5PL3 Copyright (c) Steve Scherf et al.
# Submitted via: inCDius 1.1b5
#
DISCID=be09e90e
DTITLE=Mel Tillis - Mel Tillis Greatest Hits
DYEAR=1991
DGENRE=Country
TTITLE0=Coca Cola Cowboy
TTITLE1=I Believe In You
TTITLE2=Good Woman Blues
TTITLE3=New Patches
TTITLE4=Southern Rains
TTITLE5=Your Body Is An Outlaw
TTITLE6=Blind In Love
TTITLE7=Lying Time Again
TTITLE8=Heaven Everyday
TTITLE9=Commercial Affection
TTITLE10=Sawmill
TTITLE11=Tall Drink Of Water
TTITLE12=How Bad Do You Want To Be Good
TTITLE13=Midnight Love
EXTD=
EXTT0=
EXTT1=
EXTT2=
EXTT3=
EXTT4=
EXTT5=
EXTT6=
EXTT7=
EXTT8=
EXTT9=
EXTT10=
EXTT11=
EXTT12=
EXTT13=
PLAYORDER=
